<svg width="24" height="24" viewBox="0 0 24 24" fill="none" xmlns="http://www.w3.org/2000/svg">
<g id="LinkedIn">
<path id="Vector" fill-rule="evenodd" clip-rule="evenodd" d="M4.45666 3.24268C3.6362 3.24268 2.9711 3.91425 2.9711 4.74268V19.7427C2.9711 20.5711 3.6362 21.2427 4.45666 21.2427H19.3122C20.1327 21.2427 20.7978 20.5711 20.7978 19.7427V4.74268C20.7978 3.91425 20.1327 3.24268 19.3122 3.24268H4.45666ZM8.4387 7.2454C8.44428 8.20165 7.73539 8.79087 6.89419 8.78665C6.10173 8.78243 5.41095 8.1454 5.41513 7.24681C5.41931 6.40165 6.08085 5.72243 6.94015 5.74212C7.81199 5.76181 8.44428 6.40728 8.4387 7.2454ZM12.1614 10.0044H9.66572H9.66433V18.5643H12.3021V18.3646C12.3021 17.9847 12.3018 17.6047 12.3015 17.2246C12.3007 16.2108 12.2998 15.1959 12.305 14.1824C12.3063 13.9363 12.3174 13.6804 12.3801 13.4455C12.6154 12.568 13.3968 12.0013 14.2687 12.1406C14.8285 12.2291 15.1989 12.5568 15.3549 13.0898C15.4511 13.423 15.4942 13.7816 15.4984 14.129C15.5097 15.1766 15.5081 16.2242 15.5065 17.2719C15.5059 17.6417 15.5053 18.0117 15.5053 18.3815V18.5629H18.1515V18.3576C18.1515 17.9056 18.1513 17.4537 18.151 17.0018C18.1505 15.8723 18.1499 14.7428 18.1529 13.6129C18.1543 13.1024 18.1 12.599 17.976 12.1054C17.7908 11.3713 17.4078 10.7638 16.7853 10.3251C16.3438 10.0129 15.8591 9.81178 15.3174 9.78928C15.2557 9.78669 15.1935 9.7833 15.131 9.77989C14.854 9.76477 14.5724 9.74941 14.3076 9.80334C13.5499 9.95662 12.8843 10.3068 12.3815 10.9241C12.3231 10.9949 12.2659 11.0668 12.1807 11.1741L12.1614 11.1984V10.0044ZM5.62692 18.5671H8.25218V10.01H5.62692V18.5671Z" fill="#181818"/>
</g>
</svg>
